<svg width="170" height="50" viewBox="0 0 170 50" fill="none" xmlns="http://www.w3.org/2000/svg">
<path fill-rule="evenodd" clip-rule="evenodd" d="M47.7267 16.531L45.3824 31.2097H44.9902L41.6169 15H37.7729L41.9307 35H47.1174C43.2596 43.8295 34.4492 50 24.1976 50C13.946 50 5.13563 43.8295 1.27784 35H5.45077L9.60855 15H5.76456L2.39127 31.2097H1.99902L0 18.6929C2.79507 7.93922 12.5692 0 24.1976 0C35.032 0 44.2567 6.89202 47.7267 16.531ZM33.5556 15H37.3996L33.2419 35H26.5345L23.9457 18.7903H23.3965L20.8469 35H14.1396L9.9818 15H13.8258L17.1991 31.2097H17.5913L20.1801 15H27.2013L29.7901 31.2097H30.1823L33.5556 15Z" fill="white"/>
<path d="M59.1026 22.154C61.3846 22.154 63.1906 20.81 63.6246 18.794H62.1686C61.7906 20.04 60.6146 20.838 59.1306 20.838C57.0866 20.838 55.7426 19.298 55.7426 16.932C55.7426 14.566 57.0866 13.026 59.1306 13.026C60.6006 13.026 61.7346 13.824 62.1126 15.14H63.5826C63.2046 13.068 61.4546 11.71 59.1726 11.71C56.2746 11.71 54.3006 13.824 54.3006 16.946C54.3006 20.082 56.2186 22.154 59.1026 22.154ZM68.4429 15.098C68.1769 15.042 67.9809 15.014 67.7429 15.014C66.8049 15.014 66.1189 15.49 65.8389 16.204L65.7549 15.168H64.5229V22H65.8389V18.374C65.8389 17.058 66.6089 16.302 67.8549 16.302H68.4429V15.098ZM71.8251 22.168C73.5191 22.168 74.6671 21.342 75.0031 19.872H73.7711C73.5471 20.656 72.8751 21.076 71.8531 21.076C70.5511 21.076 69.7951 20.278 69.6971 18.836L74.9891 18.822V18.332C74.9891 16.302 73.7151 14.958 71.7691 14.958C69.7811 14.958 68.4231 16.442 68.4231 18.584C68.4231 20.712 69.8091 22.168 71.8251 22.168ZM71.7691 16.064C72.9311 16.064 73.6731 16.82 73.6731 17.954H69.7251C69.8931 16.75 70.6211 16.064 71.7691 16.064ZM77.8326 22.168C78.9386 22.168 79.8766 21.678 80.2266 20.894L80.3666 22H81.4866V17.702C81.4866 15.854 80.3386 14.958 78.6446 14.958C76.8806 14.958 75.7046 15.896 75.7046 17.324H76.8526C76.8526 16.498 77.4826 16.008 78.5886 16.008C79.5126 16.008 80.1986 16.414 80.1986 17.562V17.758L78.0426 17.926C76.4326 18.052 75.4946 18.836 75.4946 20.096C75.4946 21.342 76.3626 22.168 77.8326 22.168ZM78.2106 21.146C77.3566 21.146 76.8246 20.782 76.8246 20.054C76.8246 19.382 77.3006 18.934 78.4626 18.822L80.2126 18.682V19.046C80.2126 20.334 79.4566 21.146 78.2106 21.146ZM84.5717 22V16.26H85.9157V15.154H84.5717V13.012H83.2557V15.154H81.9117V16.26H83.2557V22H84.5717ZM87.1808 13.53C87.6568 13.53 88.0488 13.138 88.0488 12.662C88.0488 12.172 87.6568 11.794 87.1808 11.794C86.7048 11.794 86.3128 12.172 86.3128 12.662C86.3128 13.138 86.7048 13.53 87.1808 13.53ZM86.5368 22H87.8528V15.154H86.5368V22ZM91.1213 22H92.4233L95.2793 15.154H93.9073L92.3813 18.976C92.1433 19.578 91.9193 20.166 91.8073 20.614C91.6953 20.194 91.4993 19.62 91.2613 18.976L89.7633 15.154H88.3633L91.1213 22ZM98.4059 22.168C100.1 22.168 101.248 21.342 101.584 19.872H100.352C100.128 20.656 99.4559 21.076 98.4339 21.076C97.1319 21.076 96.3759 20.278 96.2779 18.836L101.57 18.822V18.332C101.57 16.302 100.296 14.958 98.3499 14.958C96.3619 14.958 95.0039 16.442 95.0039 18.584C95.0039 20.712 96.3899 22.168 98.4059 22.168ZM98.3499 16.064C99.5119 16.064 100.254 16.82 100.254 17.954H96.3059C96.4739 16.75 97.2019 16.064 98.3499 16.064ZM104.03 21.454C104.03 20.684 103.554 20.194 102.966 20.194C102.406 20.194 102.028 20.6 102.028 21.16C102.028 21.678 102.42 22.014 102.882 22.014C103.05 22.014 103.162 21.986 103.26 21.93C103.26 22.364 102.854 22.742 102.28 22.84V23.428C103.274 23.302 104.03 22.462 104.03 21.454ZM109.277 22L110.173 19.48H114.429L115.339 22H116.781L113.071 11.878H111.545L107.849 22H109.277ZM112.133 14.062C112.203 13.852 112.273 13.614 112.301 13.474C112.329 13.628 112.399 13.866 112.469 14.062L114.023 18.29H110.593L112.133 14.062ZM119.152 22V16.26H120.496V15.154H119.152V13.012H117.836V15.154H116.492V16.26H117.836V22H119.152ZM123.172 22V16.26H124.516V15.154H123.172V13.012H121.856V15.154H120.512V16.26H121.856V22H123.172ZM129.057 15.098C128.791 15.042 128.595 15.014 128.357 15.014C127.419 15.014 126.733 15.49 126.453 16.204L126.369 15.168H125.137V22H126.453V18.374C126.453 17.058 127.223 16.302 128.469 16.302H129.057V15.098ZM131.46 22.168C132.566 22.168 133.504 21.678 133.854 20.894L133.994 22H135.114V17.702C135.114 15.854 133.966 14.958 132.272 14.958C130.508 14.958 129.332 15.896 129.332 17.324H130.48C130.48 16.498 131.11 16.008 132.216 16.008C133.14 16.008 133.826 16.414 133.826 17.562V17.758L131.67 17.926C130.06 18.052 129.122 18.836 129.122 20.096C129.122 21.342 129.99 22.168 131.46 22.168ZM131.838 21.146C130.984 21.146 130.452 20.782 130.452 20.054C130.452 19.382 130.928 18.934 132.09 18.822L133.84 18.682V19.046C133.84 20.334 133.084 21.146 131.838 21.146ZM135.928 18.584C135.928 20.74 137.258 22.168 139.274 22.168C140.926 22.168 142.2 21.174 142.466 19.69H141.15C140.912 20.502 140.212 20.992 139.274 20.992C138.028 20.992 137.23 20.04 137.23 18.57C137.23 17.086 138.084 16.134 139.33 16.134C140.212 16.134 140.912 16.596 141.136 17.464H142.452C142.214 15.938 141.01 14.958 139.288 14.958C137.286 14.958 135.928 16.442 135.928 18.584ZM145.227 22V16.26H146.571V15.154H145.227V13.012H143.911V15.154H142.567V16.26H143.911V22H145.227ZM147.836 13.53C148.312 13.53 148.704 13.138 148.704 12.662C148.704 12.172 148.312 11.794 147.836 11.794C147.36 11.794 146.968 12.172 146.968 12.662C146.968 13.138 147.36 13.53 147.836 13.53ZM147.192 22H148.508V15.154H147.192V22ZM151.776 22H153.078L155.934 15.154H154.562L153.036 18.976C152.798 19.578 152.574 20.166 152.462 20.614C152.35 20.194 152.154 19.62 151.916 18.976L150.418 15.154H149.018L151.776 22ZM159.061 22.168C160.755 22.168 161.903 21.342 162.239 19.872H161.007C160.783 20.656 160.111 21.076 159.089 21.076C157.787 21.076 157.031 20.278 156.933 18.836L162.225 18.822V18.332C162.225 16.302 160.951 14.958 159.005 14.958C157.017 14.958 155.659 16.442 155.659 18.584C155.659 20.712 157.045 22.168 159.061 22.168ZM159.005 16.064C160.167 16.064 160.909 16.82 160.909 17.954H156.961C157.129 16.75 157.857 16.064 159.005 16.064ZM164.685 21.454C164.685 20.684 164.209 20.194 163.621 20.194C163.061 20.194 162.683 20.6 162.683 21.16C162.683 21.678 163.075 22.014 163.537 22.014C163.705 22.014 163.817 21.986 163.915 21.93C163.915 22.364 163.509 22.742 162.935 22.84V23.428C163.929 23.302 164.685 22.462 164.685 21.454ZM56.2746 28.878H54.9026V39H56.2746V28.878ZM59.167 39V35.374C59.167 34.044 59.881 33.162 61.113 33.162C62.121 33.162 62.765 33.722 62.765 35.108V39H64.081V34.814C64.081 33.064 63.255 31.958 61.449 31.958C60.483 31.958 59.615 32.42 59.181 33.204L59.041 32.154H57.851V39H59.167ZM67.2757 39V33.26H68.6197V32.154H67.2757V30.012H65.9597V32.154H64.6157V33.26H65.9597V39H67.2757ZM73.9727 32.154V35.766C73.9727 37.236 73.3148 38.006 72.1107 38.006C71.1027 38.006 70.4727 37.446 70.4727 35.976V32.154H69.1567V36.41C69.1567 38.09 70.0527 39.168 71.6487 39.168C72.6567 39.168 73.5667 38.678 73.9588 37.964L74.0987 39H75.2747V32.154H73.9727ZM77.2681 30.53C77.7441 30.53 78.1361 30.138 78.1361 29.662C78.1361 29.172 77.7441 28.794 77.2681 28.794C76.7921 28.794 76.4001 29.172 76.4001 29.662C76.4001 30.138 76.7921 30.53 77.2681 30.53ZM76.6241 39H77.9401V32.154H76.6241V39ZM81.2227 39V33.26H82.5667V32.154H81.2227V30.012H79.9067V32.154H78.5627V33.26H79.9067V39H81.2227ZM83.8317 30.53C84.3077 30.53 84.6997 30.138 84.6997 29.662C84.6997 29.172 84.3077 28.794 83.8317 28.794C83.3557 28.794 82.9637 29.172 82.9637 29.662C82.9637 30.138 83.3557 30.53 83.8317 30.53ZM83.1877 39H84.5037V32.154H83.1877V39ZM87.7723 39H89.0743L91.9303 32.154H90.5583L89.0323 35.976C88.7943 36.578 88.5703 37.166 88.4583 37.614C88.3463 37.194 88.1503 36.62 87.9123 35.976L86.4143 32.154H85.0143L87.7723 39ZM95.0569 39.168C96.7509 39.168 97.8989 38.342 98.2349 36.872H97.0029C96.7789 37.656 96.1069 38.076 95.0849 38.076C93.7829 38.076 93.0269 37.278 92.9289 35.836L98.2209 35.822V35.332C98.2209 33.302 96.9469 31.958 95.0009 31.958C93.0129 31.958 91.6549 33.442 91.6549 35.584C91.6549 37.712 93.0409 39.168 95.0569 39.168ZM95.0009 33.064C96.1629 33.064 96.9049 33.82 96.9049 34.954H92.9569C93.1249 33.75 93.8529 33.064 95.0009 33.064ZM107.173 39.196C110.085 39.196 112.353 36.886 112.353 33.932C112.353 30.992 110.085 28.696 107.173 28.696C104.275 28.696 102.007 30.992 102.007 33.932C102.007 36.886 104.261 39.196 107.173 39.196ZM107.173 38.342C104.751 38.342 102.917 36.438 102.917 33.932C102.917 31.454 104.765 29.55 107.173 29.55C109.595 29.55 111.443 31.44 111.443 33.932C111.443 36.438 109.609 38.342 107.173 38.342ZM104.583 33.96C104.583 35.612 105.647 36.732 107.229 36.732C108.503 36.732 109.497 35.962 109.693 34.814H108.629C108.447 35.444 107.957 35.794 107.229 35.794C106.277 35.794 105.633 35.052 105.633 33.946C105.633 32.854 106.305 32.098 107.271 32.098C107.985 32.098 108.447 32.434 108.615 33.078H109.693C109.497 31.888 108.559 31.146 107.243 31.146C105.689 31.146 104.583 32.308 104.583 33.96ZM119.834 38.986V37.712H115.158L117.258 35.892C119.05 34.338 119.764 33.316 119.764 31.874C119.764 29.928 118.462 28.696 116.432 28.696C114.374 28.696 113.002 30.11 112.96 32.28H114.332C114.36 30.838 115.172 29.928 116.418 29.928C117.636 29.928 118.364 30.684 118.364 31.958C118.364 33.036 117.902 33.722 116.264 35.136L113.002 37.95V39L119.834 38.986ZM120.536 33.946C120.536 37.096 122.09 39.182 124.708 39.182C127.312 39.182 128.866 37.096 128.866 33.946C128.866 30.81 127.242 28.682 124.708 28.682C122.16 28.682 120.536 30.81 120.536 33.946ZM121.894 33.946C121.894 31.426 122.93 29.914 124.708 29.914C126.486 29.914 127.508 31.426 127.508 33.946C127.508 36.438 126.486 37.95 124.708 37.95C122.93 37.95 121.894 36.438 121.894 33.946ZM136.473 38.986V37.712H131.797L133.897 35.892C135.689 34.338 136.403 33.316 136.403 31.874C136.403 29.928 135.101 28.696 133.071 28.696C131.013 28.696 129.641 30.11 129.599 32.28H130.971C130.999 30.838 131.811 29.928 133.057 29.928C134.275 29.928 135.003 30.684 135.003 31.958C135.003 33.036 134.541 33.722 132.903 35.136L129.641 37.95V39L136.473 38.986ZM144.021 38.986V37.712H139.345L141.445 35.892C143.237 34.338 143.951 33.316 143.951 31.874C143.951 29.928 142.649 28.696 140.619 28.696C138.561 28.696 137.189 30.11 137.147 32.28H138.519C138.547 30.838 139.359 29.928 140.605 29.928C141.823 29.928 142.551 30.684 142.551 31.958C142.551 33.036 142.089 33.722 140.451 35.136L137.189 37.95V39L144.021 38.986Z" fill="white" fill-opacity="0.85"/>
</svg>
