<svg width="365" height="365" viewBox="0 0 365 365" fill="none" xmlns="http://www.w3.org/2000/svg">
<circle cx="182.5" cy="182.5" r="149.5" fill="#272727"/>
<path d="M155.196 235L141.312 169.636H140.688L126.804 235H88.896L63.78 127.672H99.66L111.984 188.512H112.608L124.776 127.672H158.784L171.732 188.512H172.356L183.9 127.672H218.22L193.104 235H155.196Z" fill="white"/>
<path d="M127 231H88V337H127V231Z" fill="white"/>
<mask id="path-4-outside-1_10_38" maskUnits="userSpaceOnUse" x="168" y="115" width="144" height="132" fill="black">
<rect fill="white" x="168" y="115" width="144" height="132"/>
<path d="M257.156 235H222.68V193.348L180.092 127.672H219.716L240.308 163.396H240.932L261.524 127.672H299.12L257.156 193.348V235Z"/>
</mask>
<path d="M257.156 235H222.68V193.348L180.092 127.672H219.716L240.308 163.396H240.932L261.524 127.672H299.12L257.156 193.348V235Z" fill="#8C52FF"/>
<path d="M257.156 235V247C263.783 247 269.156 241.627 269.156 235H257.156ZM222.68 235H210.68C210.68 241.627 216.053 247 222.68 247V235ZM222.68 193.348H234.68C234.68 191.031 234.009 188.763 232.748 186.819L222.68 193.348ZM180.092 127.672V115.672C175.694 115.672 171.648 118.078 169.548 121.943C167.448 125.807 167.631 130.511 170.024 134.201L180.092 127.672ZM219.716 127.672L230.112 121.679C227.97 117.962 224.006 115.672 219.716 115.672V127.672ZM240.308 163.396L229.912 169.389C232.054 173.106 236.018 175.396 240.308 175.396V163.396ZM240.932 163.396V175.396C245.222 175.396 249.186 173.106 251.328 169.389L240.932 163.396ZM261.524 127.672V115.672C257.234 115.672 253.27 117.962 251.128 121.679L261.524 127.672ZM299.12 127.672L309.232 134.133C311.592 130.439 311.751 125.752 309.645 121.907C307.539 118.062 303.504 115.672 299.12 115.672V127.672ZM257.156 193.348L247.044 186.887C245.811 188.816 245.156 191.058 245.156 193.348H257.156ZM257.156 223H222.68V247H257.156V223ZM234.68 235V193.348H210.68V235H234.68ZM232.748 186.819L190.16 121.143L170.024 134.201L212.612 199.877L232.748 186.819ZM180.092 139.672H219.716V115.672H180.092V139.672ZM209.32 133.665L229.912 169.389L250.704 157.403L230.112 121.679L209.32 133.665ZM240.308 175.396H240.932V151.396H240.308V175.396ZM251.328 169.389L271.921 133.665L251.128 121.679L230.536 157.403L251.328 169.389ZM261.524 139.672H299.12V115.672H261.524V139.672ZM289.008 121.211L247.044 186.887L267.268 199.809L309.232 134.133L289.008 121.211ZM245.156 193.348V235H269.156V193.348H245.156Z" fill="#272727" mask="url(#path-4-outside-1_10_38)"/>
<line x1="81" y1="112.5" x2="146" y2="112.5" stroke="white" stroke-width="3"/>
<path d="M301.5 124L288 145L275 134.5L301.5 84.5L317 100.5L301.5 124Z" fill="#8C52FF"/>
<path d="M278.329 98.9139L261.462 128.099L281.788 139.423L325.344 77.3397L296.967 65.7389L278.329 98.9139Z" fill="#8C52FF"/>
<circle cx="182.5" cy="182.5" r="166" stroke="black" stroke-width="33"/>
<path d="M154.938 266H150.45L147.65 254.487H148.325L145.525 266H141.013L137.25 249.5H141.538L143.525 261.075H143.475L146.575 249.5H149.388L152.5 261.075H152.45L154.438 249.5H158.725L154.938 266ZM160.913 249.5H171.451V252.775H164.638V256.137H171.388V259.312H164.638V262.725H171.451V266H160.913V249.5ZM183.418 266H179.193L173.318 249.5H177.53L181.305 261.237L185.08 249.5H189.293L183.418 266ZM193.866 257.737C193.866 258.679 194.057 259.533 194.441 260.3C194.832 261.058 195.37 261.662 196.053 262.112C196.745 262.562 197.545 262.788 198.453 262.788C199.362 262.788 200.157 262.562 200.841 262.112C201.532 261.662 202.07 261.058 202.453 260.3C202.845 259.533 203.041 258.679 203.041 257.737C203.041 256.796 202.845 255.946 202.453 255.187C202.07 254.429 201.532 253.825 200.841 253.375C200.157 252.917 199.362 252.687 198.453 252.687C197.545 252.687 196.745 252.917 196.053 253.375C195.37 253.825 194.832 254.429 194.441 255.187C194.057 255.946 193.866 256.796 193.866 257.737ZM189.978 257.737C189.978 256.537 190.191 255.421 190.616 254.387C191.041 253.346 191.637 252.437 192.403 251.662C193.17 250.887 194.07 250.283 195.103 249.85C196.137 249.417 197.253 249.2 198.453 249.2C199.67 249.2 200.791 249.417 201.816 249.85C202.849 250.283 203.745 250.887 204.503 251.662C205.27 252.437 205.862 253.346 206.278 254.387C206.703 255.421 206.916 256.537 206.916 257.737C206.916 258.946 206.712 260.071 206.303 261.112C205.895 262.146 205.312 263.054 204.553 263.837C203.795 264.612 202.899 265.217 201.866 265.65C200.832 266.083 199.695 266.3 198.453 266.3C197.187 266.3 196.032 266.083 194.991 265.65C193.957 265.217 193.066 264.612 192.316 263.837C191.566 263.054 190.987 262.146 190.578 261.112C190.178 260.071 189.978 258.946 189.978 257.737ZM208.983 249.5H215.708C216.666 249.5 217.521 249.7 218.271 250.1C219.021 250.5 219.612 251.079 220.046 251.837C220.487 252.587 220.708 253.483 220.708 254.525C220.708 255.567 220.521 256.421 220.146 257.087C219.779 257.746 219.337 258.242 218.821 258.575C218.304 258.9 217.825 259.096 217.383 259.162L221.396 266H217.196L213.621 259.45H212.721V266H208.983V249.5ZM212.721 256.862H214.371C215.037 256.862 215.621 256.7 216.121 256.375C216.621 256.05 216.871 255.475 216.871 254.65C216.871 253.825 216.625 253.254 216.133 252.937C215.641 252.612 215.062 252.45 214.396 252.45H212.721V256.862ZM226.259 260.062L220.571 249.5H225.109L228.121 255.787L231.146 249.5H235.659L229.996 260.062V266H226.259V260.062Z" fill="white"/>
<path d="M166.905 286L166.131 284.011H163.584L162.819 286H162L164.511 279.547H165.24L167.742 286H166.905ZM165.168 281.347C165.15 281.299 165.12 281.212 165.078 281.086C165.036 280.96 164.994 280.831 164.952 280.699C164.916 280.561 164.886 280.456 164.862 280.384C164.832 280.504 164.799 280.627 164.763 280.753C164.733 280.873 164.7 280.984 164.664 281.086C164.634 281.188 164.607 281.275 164.583 281.347L163.854 283.291H165.888L165.168 281.347ZM174.475 282.607H176.698V285.757C176.35 285.871 175.999 285.955 175.645 286.009C175.291 286.063 174.889 286.09 174.439 286.09C173.773 286.09 173.212 285.958 172.756 285.694C172.3 285.424 171.952 285.043 171.712 284.551C171.478 284.053 171.361 283.465 171.361 282.787C171.361 282.115 171.493 281.533 171.757 281.041C172.021 280.549 172.399 280.168 172.891 279.898C173.389 279.622 173.989 279.484 174.691 279.484C175.051 279.484 175.39 279.517 175.708 279.583C176.032 279.649 176.332 279.742 176.608 279.862L176.302 280.564C176.074 280.462 175.816 280.375 175.528 280.303C175.246 280.231 174.952 280.195 174.646 280.195C174.136 280.195 173.698 280.3 173.332 280.51C172.966 280.72 172.687 281.02 172.495 281.41C172.303 281.794 172.207 282.253 172.207 282.787C172.207 283.297 172.288 283.75 172.45 284.146C172.618 284.536 172.879 284.842 173.233 285.064C173.587 285.28 174.052 285.388 174.628 285.388C174.82 285.388 174.988 285.382 175.132 285.37C175.282 285.352 175.417 285.331 175.537 285.307C175.663 285.283 175.78 285.259 175.888 285.235V283.327H174.475V282.607ZM185.064 286H181.473V279.574H185.064V280.285H182.283V282.292H184.902V282.994H182.283V285.289H185.064V286ZM194.808 286H193.863L190.425 280.663H190.389C190.395 280.771 190.401 280.891 190.407 281.023C190.419 281.155 190.428 281.299 190.434 281.455C190.44 281.605 190.446 281.761 190.452 281.923C190.458 282.085 190.461 282.247 190.461 282.409V286H189.714V279.574H190.65L194.079 284.893H194.115C194.109 284.821 194.103 284.722 194.097 284.596C194.091 284.464 194.085 284.32 194.079 284.164C194.073 284.002 194.067 283.837 194.061 283.669C194.055 283.501 194.052 283.345 194.052 283.201V279.574H194.808V286ZM202.546 280.195C202.204 280.195 201.895 280.255 201.619 280.375C201.343 280.489 201.109 280.66 200.917 280.888C200.725 281.11 200.578 281.383 200.476 281.707C200.374 282.025 200.323 282.385 200.323 282.787C200.323 283.315 200.404 283.774 200.566 284.164C200.734 284.554 200.98 284.854 201.304 285.064C201.634 285.274 202.045 285.379 202.537 285.379C202.819 285.379 203.086 285.355 203.338 285.307C203.59 285.259 203.836 285.199 204.076 285.127V285.829C203.836 285.919 203.587 285.985 203.329 286.027C203.077 286.069 202.774 286.09 202.42 286.09C201.766 286.09 201.22 285.955 200.782 285.685C200.344 285.415 200.014 285.031 199.792 284.533C199.576 284.035 199.468 283.45 199.468 282.778C199.468 282.292 199.534 281.848 199.666 281.446C199.804 281.044 200.002 280.696 200.26 280.402C200.524 280.108 200.848 279.883 201.232 279.727C201.616 279.565 202.057 279.484 202.555 279.484C202.885 279.484 203.203 279.517 203.509 279.583C203.815 279.649 204.088 279.742 204.328 279.862L204.004 280.546C203.806 280.456 203.584 280.375 203.338 280.303C203.098 280.231 202.834 280.195 202.546 280.195ZM210.393 282.733L212.067 279.574H212.94L210.798 283.507V286H209.988V283.543L207.846 279.574H208.728L210.393 282.733Z" fill="white"/>
</svg>
