<svg width="1059" height="365" viewBox="0 0 1059 365" fill="none" xmlns="http://www.w3.org/2000/svg">
<circle cx="182.5" cy="182.5" r="149.5" fill="#272727"/>
<path d="M155.196 235L141.312 169.636H140.688L126.804 235H88.896L63.78 127.672H99.66L111.984 188.512H112.608L124.776 127.672H158.784L171.732 188.512H172.356L183.9 127.672H218.22L193.104 235H155.196Z" fill="white"/>
<path d="M127 231H88V337H127V231Z" fill="white"/>
<mask id="path-4-outside-1_10_53" maskUnits="userSpaceOnUse" x="168" y="115" width="144" height="132" fill="black">
<rect fill="white" x="168" y="115" width="144" height="132"/>
<path d="M257.156 235H222.68V193.348L180.092 127.672H219.716L240.308 163.396H240.932L261.524 127.672H299.12L257.156 193.348V235Z"/>
</mask>
<path d="M257.156 235H222.68V193.348L180.092 127.672H219.716L240.308 163.396H240.932L261.524 127.672H299.12L257.156 193.348V235Z" fill="#8C52FF"/>
<path d="M257.156 235V247C263.783 247 269.156 241.627 269.156 235H257.156ZM222.68 235H210.68C210.68 241.627 216.053 247 222.68 247V235ZM222.68 193.348H234.68C234.68 191.031 234.009 188.763 232.748 186.819L222.68 193.348ZM180.092 127.672V115.672C175.694 115.672 171.648 118.078 169.548 121.943C167.448 125.807 167.631 130.511 170.024 134.201L180.092 127.672ZM219.716 127.672L230.112 121.679C227.97 117.962 224.006 115.672 219.716 115.672V127.672ZM240.308 163.396L229.912 169.389C232.054 173.106 236.018 175.396 240.308 175.396V163.396ZM240.932 163.396V175.396C245.222 175.396 249.186 173.106 251.328 169.389L240.932 163.396ZM261.524 127.672V115.672C257.234 115.672 253.27 117.962 251.128 121.679L261.524 127.672ZM299.12 127.672L309.232 134.133C311.592 130.439 311.751 125.752 309.645 121.907C307.539 118.062 303.504 115.672 299.12 115.672V127.672ZM257.156 193.348L247.044 186.887C245.811 188.816 245.156 191.058 245.156 193.348H257.156ZM257.156 223H222.68V247H257.156V223ZM234.68 235V193.348H210.68V235H234.68ZM232.748 186.819L190.16 121.143L170.024 134.201L212.612 199.877L232.748 186.819ZM180.092 139.672H219.716V115.672H180.092V139.672ZM209.32 133.665L229.912 169.389L250.704 157.403L230.112 121.679L209.32 133.665ZM240.308 175.396H240.932V151.396H240.308V175.396ZM251.328 169.389L271.921 133.665L251.128 121.679L230.536 157.403L251.328 169.389ZM261.524 139.672H299.12V115.672H261.524V139.672ZM289.008 121.211L247.044 186.887L267.268 199.809L309.232 134.133L289.008 121.211ZM245.156 193.348V235H269.156V193.348H245.156Z" fill="#272727" mask="url(#path-4-outside-1_10_53)"/>
<line x1="81" y1="112.5" x2="146" y2="112.5" stroke="white" stroke-width="3"/>
<path d="M301.5 124L288 145L275 134.5L301.5 84.5L317 100.5L301.5 124Z" fill="#8C52FF"/>
<path d="M278.329 98.9139L261.462 128.099L281.788 139.423L325.344 77.3397L296.967 65.7389L278.329 98.9139Z" fill="#8C52FF"/>
<circle cx="182.5" cy="182.5" r="166" stroke="black" stroke-width="33"/>
<path d="M523.388 255H493.77L475.29 179.017H479.745L461.265 255H431.483L406.65 146.1H434.948L448.065 222.495H447.735L468.195 146.1H486.758L507.3 222.495H506.97L520.088 146.1H548.385L523.388 255ZM562.829 146.1H632.376V167.715H587.414V189.907H631.964V210.862H587.414V233.385H632.376V255H562.829V146.1ZM711.359 255H683.474L644.699 146.1H672.501L697.416 223.567L722.331 146.1H750.134L711.359 255ZM780.314 200.467C780.314 206.682 781.579 212.32 784.109 217.38C786.694 222.385 790.242 226.372 794.752 229.342C799.317 232.312 804.597 233.798 810.592 233.798C816.587 233.798 821.839 232.312 826.349 229.342C830.914 226.372 834.462 222.385 836.992 217.38C839.577 212.32 840.869 206.682 840.869 200.467C840.869 194.252 839.577 188.642 836.992 183.637C834.462 178.632 830.914 174.645 826.349 171.675C821.839 168.65 816.587 167.137 810.592 167.137C804.597 167.137 799.317 168.65 794.752 171.675C790.242 174.645 786.694 178.632 784.109 183.637C781.579 188.642 780.314 194.252 780.314 200.467ZM754.657 200.467C754.657 192.547 756.059 185.177 758.864 178.357C761.669 171.482 765.602 165.487 770.662 160.372C775.722 155.257 781.662 151.27 788.482 148.41C795.302 145.55 802.672 144.12 810.592 144.12C818.622 144.12 826.019 145.55 832.784 148.41C839.604 151.27 845.517 155.257 850.522 160.372C855.582 165.487 859.487 171.482 862.237 178.357C865.042 185.177 866.444 192.547 866.444 200.467C866.444 208.442 865.097 215.867 862.402 222.742C859.707 229.562 855.857 235.557 850.852 240.727C845.847 245.842 839.934 249.83 833.114 252.69C826.294 255.55 818.787 256.98 810.592 256.98C802.232 256.98 794.614 255.55 787.739 252.69C780.919 249.83 775.034 245.842 770.084 240.727C765.134 235.557 761.312 229.562 758.617 222.742C755.977 215.867 754.657 208.442 754.657 200.467ZM880.088 146.1H924.473C930.798 146.1 936.435 147.42 941.385 150.06C946.335 152.7 950.24 156.522 953.1 161.527C956.015 166.477 957.473 172.39 957.473 179.265C957.473 186.14 956.235 191.777 953.76 196.177C951.34 200.522 948.425 203.795 945.015 205.995C941.605 208.14 938.443 209.432 935.528 209.872L962.01 255H934.29L910.695 211.77H904.755V255H880.088V146.1ZM904.755 194.692H915.645C920.045 194.692 923.895 193.62 927.195 191.475C930.495 189.33 932.145 185.535 932.145 180.09C932.145 174.645 930.523 170.877 927.278 168.787C924.033 166.642 920.21 165.57 915.81 165.57H904.755V194.692ZM994.108 215.812L956.571 146.1H986.518L1006.4 187.597L1026.37 146.1H1056.15L1018.78 215.812V255H994.108V215.812Z" fill="white"/>
</svg>
