<svg width="782" height="365" viewBox="0 0 782 365" fill="none" xmlns="http://www.w3.org/2000/svg">
<circle cx="182.5" cy="182.5" r="149.5" fill="#272727"/>
<path d="M155.196 235L141.312 169.636H140.688L126.804 235H88.896L63.78 127.672H99.66L111.984 188.512H112.608L124.776 127.672H158.784L171.732 188.512H172.356L183.9 127.672H218.22L193.104 235H155.196Z" fill="white"/>
<path d="M127 231H88V337H127V231Z" fill="white"/>
<mask id="path-4-outside-1_10_53" maskUnits="userSpaceOnUse" x="168" y="115" width="144" height="132" fill="black">
<rect fill="white" x="168" y="115" width="144" height="132"/>
<path d="M257.156 235H222.68V193.348L180.092 127.672H219.716L240.308 163.396H240.932L261.524 127.672H299.12L257.156 193.348V235Z"/>
</mask>
<path d="M257.156 235H222.68V193.348L180.092 127.672H219.716L240.308 163.396H240.932L261.524 127.672H299.12L257.156 193.348V235Z" fill="#8C52FF"/>
<path d="M257.156 235V247C263.783 247 269.156 241.627 269.156 235H257.156ZM222.68 235H210.68C210.68 241.627 216.053 247 222.68 247V235ZM222.68 193.348H234.68C234.68 191.031 234.009 188.763 232.748 186.819L222.68 193.348ZM180.092 127.672V115.672C175.694 115.672 171.648 118.078 169.548 121.943C167.448 125.807 167.631 130.511 170.024 134.201L180.092 127.672ZM219.716 127.672L230.112 121.679C227.97 117.962 224.006 115.672 219.716 115.672V127.672ZM240.308 163.396L229.912 169.389C232.054 173.106 236.018 175.396 240.308 175.396V163.396ZM240.932 163.396V175.396C245.222 175.396 249.186 173.106 251.328 169.389L240.932 163.396ZM261.524 127.672V115.672C257.234 115.672 253.27 117.962 251.128 121.679L261.524 127.672ZM299.12 127.672L309.232 134.133C311.592 130.439 311.751 125.752 309.645 121.907C307.539 118.062 303.504 115.672 299.12 115.672V127.672ZM257.156 193.348L247.044 186.887C245.811 188.816 245.156 191.058 245.156 193.348H257.156ZM257.156 223H222.68V247H257.156V223ZM234.68 235V193.348H210.68V235H234.68ZM232.748 186.819L190.16 121.143L170.024 134.201L212.612 199.877L232.748 186.819ZM180.092 139.672H219.716V115.672H180.092V139.672ZM209.32 133.665L229.912 169.389L250.704 157.403L230.112 121.679L209.32 133.665ZM240.308 175.396H240.932V151.396H240.308V175.396ZM251.328 169.389L271.921 133.665L251.128 121.679L230.536 157.403L251.328 169.389ZM261.524 139.672H299.12V115.672H261.524V139.672ZM289.008 121.211L247.044 186.887L267.268 199.809L309.232 134.133L289.008 121.211ZM245.156 193.348V235H269.156V193.348H245.156Z" fill="#272727" mask="url(#path-4-outside-1_10_53)"/>
<line x1="81" y1="112.5" x2="146" y2="112.5" stroke="white" stroke-width="3"/>
<path d="M301.5 124L288 145L275 134.5L301.5 84.5L317 100.5L301.5 124Z" fill="#8C52FF"/>
<path d="M278.329 98.9139L261.462 128.099L281.788 139.423L325.344 77.3397L296.967 65.7389L278.329 98.9139Z" fill="#8C52FF"/>
<circle cx="182.5" cy="182.5" r="166" stroke="black" stroke-width="33"/>
<path d="M548.355 253L546.721 248.801H541.344L539.729 253H538L543.301 239.377H544.84L550.122 253H548.355ZM544.688 243.177C544.65 243.076 544.587 242.892 544.498 242.626C544.409 242.36 544.321 242.088 544.232 241.809C544.156 241.518 544.093 241.296 544.042 241.144C543.979 241.397 543.909 241.657 543.833 241.923C543.77 242.176 543.7 242.411 543.624 242.626C543.561 242.841 543.504 243.025 543.453 243.177L541.914 247.281H546.208L544.688 243.177ZM564.337 245.837H569.03V252.487C568.295 252.728 567.554 252.905 566.807 253.019C566.059 253.133 565.211 253.19 564.261 253.19C562.855 253.19 561.67 252.911 560.708 252.354C559.745 251.784 559.01 250.98 558.504 249.941C558.01 248.89 557.763 247.648 557.763 246.217C557.763 244.798 558.041 243.57 558.599 242.531C559.156 241.492 559.954 240.688 560.993 240.118C562.044 239.535 563.311 239.244 564.793 239.244C565.553 239.244 566.268 239.314 566.94 239.453C567.624 239.592 568.257 239.789 568.84 240.042L568.194 241.524C567.712 241.309 567.168 241.125 566.56 240.973C565.964 240.821 565.344 240.745 564.698 240.745C563.621 240.745 562.696 240.967 561.924 241.41C561.151 241.853 560.562 242.487 560.157 243.31C559.751 244.121 559.549 245.09 559.549 246.217C559.549 247.294 559.72 248.25 560.062 249.086C560.416 249.909 560.967 250.555 561.715 251.024C562.462 251.48 563.444 251.708 564.66 251.708C565.065 251.708 565.42 251.695 565.724 251.67C566.04 251.632 566.325 251.588 566.579 251.537C566.845 251.486 567.092 251.436 567.32 251.385V247.357H564.337V245.837ZM586.691 253H579.11V239.434H586.691V240.935H580.82V245.172H586.349V246.654H580.82V251.499H586.691V253ZM607.262 253H605.267L598.009 241.733H597.933C597.945 241.961 597.958 242.214 597.971 242.493C597.996 242.772 598.015 243.076 598.028 243.405C598.04 243.722 598.053 244.051 598.066 244.393C598.078 244.735 598.085 245.077 598.085 245.419V253H596.508V239.434H598.484L605.723 250.663H605.799C605.786 250.511 605.773 250.302 605.761 250.036C605.748 249.757 605.735 249.453 605.723 249.124C605.71 248.782 605.697 248.434 605.685 248.079C605.672 247.724 605.666 247.395 605.666 247.091V239.434H607.262V253ZM623.597 240.745C622.875 240.745 622.223 240.872 621.64 241.125C621.057 241.366 620.563 241.727 620.158 242.208C619.753 242.677 619.442 243.253 619.227 243.937C619.012 244.608 618.904 245.368 618.904 246.217C618.904 247.332 619.075 248.301 619.417 249.124C619.772 249.947 620.291 250.581 620.975 251.024C621.672 251.467 622.539 251.689 623.578 251.689C624.173 251.689 624.737 251.638 625.269 251.537C625.801 251.436 626.32 251.309 626.827 251.157V252.639C626.32 252.829 625.795 252.968 625.25 253.057C624.718 253.146 624.078 253.19 623.331 253.19C621.95 253.19 620.798 252.905 619.873 252.335C618.948 251.765 618.252 250.954 617.783 249.903C617.327 248.852 617.099 247.617 617.099 246.198C617.099 245.172 617.238 244.235 617.517 243.386C617.808 242.537 618.226 241.803 618.771 241.182C619.328 240.561 620.012 240.086 620.823 239.757C621.634 239.415 622.565 239.244 623.616 239.244C624.313 239.244 624.984 239.314 625.63 239.453C626.276 239.592 626.852 239.789 627.359 240.042L626.675 241.486C626.257 241.296 625.788 241.125 625.269 240.973C624.762 240.821 624.205 240.745 623.597 240.745ZM640.162 246.103L643.696 239.434H645.539L641.017 247.737V253H639.307V247.813L634.785 239.434H636.647L640.162 246.103Z" fill="white"/>
<path d="M469.88 206H452.648L441.896 161.792H444.488L433.736 206H416.408L401.96 142.64H418.424L426.056 187.088H425.864L437.768 142.64H448.568L460.52 187.088H460.328L467.96 142.64H484.424L469.88 206ZM492.828 142.64H533.292V155.216H507.132V168.128H533.052V180.32H507.132V193.424H533.292V206H492.828V142.64ZM579.245 206H563.021L540.461 142.64H556.637L571.133 187.712L585.629 142.64H601.805L579.245 206ZM619.365 174.272C619.365 177.888 620.101 181.168 621.573 184.112C623.077 187.024 625.141 189.344 627.765 191.072C630.421 192.8 633.493 193.664 636.981 193.664C640.469 193.664 643.525 192.8 646.149 191.072C648.805 189.344 650.869 187.024 652.341 184.112C653.845 181.168 654.597 177.888 654.597 174.272C654.597 170.656 653.845 167.392 652.341 164.48C650.869 161.568 648.805 159.248 646.149 157.52C643.525 155.76 640.469 154.88 636.981 154.88C633.493 154.88 630.421 155.76 627.765 157.52C625.141 159.248 623.077 161.568 621.573 164.48C620.101 167.392 619.365 170.656 619.365 174.272ZM604.437 174.272C604.437 169.664 605.253 165.376 606.885 161.408C608.517 157.408 610.805 153.92 613.749 150.944C616.693 147.968 620.149 145.648 624.117 143.984C628.085 142.32 632.373 141.488 636.981 141.488C641.653 141.488 645.957 142.32 649.893 143.984C653.861 145.648 657.301 147.968 660.213 150.944C663.157 153.92 665.429 157.408 667.029 161.408C668.661 165.376 669.477 169.664 669.477 174.272C669.477 178.912 668.693 183.232 667.125 187.232C665.557 191.2 663.317 194.688 660.405 197.696C657.493 200.672 654.053 202.992 650.085 204.656C646.117 206.32 641.749 207.152 636.981 207.152C632.117 207.152 627.685 206.32 623.685 204.656C619.717 202.992 616.293 200.672 613.413 197.696C610.533 194.688 608.309 191.2 606.741 187.232C605.205 183.232 604.437 178.912 604.437 174.272ZM677.415 142.64H703.239C706.919 142.64 710.199 143.408 713.079 144.944C715.959 146.48 718.231 148.704 719.895 151.616C721.591 154.496 722.439 157.936 722.439 161.936C722.439 165.936 721.719 169.216 720.279 171.776C718.871 174.304 717.175 176.208 715.191 177.488C713.207 178.736 711.367 179.488 709.671 179.744L725.079 206H708.951L695.223 180.848H691.767V206H677.415V142.64ZM691.767 170.912H698.103C700.663 170.912 702.903 170.288 704.823 169.04C706.743 167.792 707.703 165.584 707.703 162.416C707.703 159.248 706.759 157.056 704.871 155.84C702.983 154.592 700.759 153.968 698.199 153.968H691.767V170.912ZM743.754 183.2L721.914 142.64H739.338L750.906 166.784L762.522 142.64H779.85L758.106 183.2V206H743.754V183.2Z" fill="white"/>
</svg>
