<svg width="1019" height="365" viewBox="0 0 1019 365" fill="none" xmlns="http://www.w3.org/2000/svg">
<circle cx="182.5" cy="182.5" r="149.5" fill="#272727"/>
<path d="M155.196 235L141.312 169.636H140.688L126.804 235H88.896L63.78 127.672H99.66L111.984 188.512H112.608L124.776 127.672H158.784L171.732 188.512H172.356L183.9 127.672H218.22L193.104 235H155.196Z" fill="white"/>
<path d="M127 231H88V337H127V231Z" fill="white"/>
<mask id="path-4-outside-1_10_53" maskUnits="userSpaceOnUse" x="168" y="115" width="144" height="132" fill="black">
<rect fill="white" x="168" y="115" width="144" height="132"/>
<path d="M257.156 235H222.68V193.348L180.092 127.672H219.716L240.308 163.396H240.932L261.524 127.672H299.12L257.156 193.348V235Z"/>
</mask>
<path d="M257.156 235H222.68V193.348L180.092 127.672H219.716L240.308 163.396H240.932L261.524 127.672H299.12L257.156 193.348V235Z" fill="#8C52FF"/>
<path d="M257.156 235V247C263.783 247 269.156 241.627 269.156 235H257.156ZM222.68 235H210.68C210.68 241.627 216.053 247 222.68 247V235ZM222.68 193.348H234.68C234.68 191.031 234.009 188.763 232.748 186.819L222.68 193.348ZM180.092 127.672V115.672C175.694 115.672 171.648 118.078 169.548 121.943C167.448 125.807 167.631 130.511 170.024 134.201L180.092 127.672ZM219.716 127.672L230.112 121.679C227.97 117.962 224.006 115.672 219.716 115.672V127.672ZM240.308 163.396L229.912 169.389C232.054 173.106 236.018 175.396 240.308 175.396V163.396ZM240.932 163.396V175.396C245.222 175.396 249.186 173.106 251.328 169.389L240.932 163.396ZM261.524 127.672V115.672C257.234 115.672 253.27 117.962 251.128 121.679L261.524 127.672ZM299.12 127.672L309.232 134.133C311.592 130.439 311.751 125.752 309.645 121.907C307.539 118.062 303.504 115.672 299.12 115.672V127.672ZM257.156 193.348L247.044 186.887C245.811 188.816 245.156 191.058 245.156 193.348H257.156ZM257.156 223H222.68V247H257.156V223ZM234.68 235V193.348H210.68V235H234.68ZM232.748 186.819L190.16 121.143L170.024 134.201L212.612 199.877L232.748 186.819ZM180.092 139.672H219.716V115.672H180.092V139.672ZM209.32 133.665L229.912 169.389L250.704 157.403L230.112 121.679L209.32 133.665ZM240.308 175.396H240.932V151.396H240.308V175.396ZM251.328 169.389L271.921 133.665L251.128 121.679L230.536 157.403L251.328 169.389ZM261.524 139.672H299.12V115.672H261.524V139.672ZM289.008 121.211L247.044 186.887L267.268 199.809L309.232 134.133L289.008 121.211ZM245.156 193.348V235H269.156V193.348H245.156Z" fill="#272727" mask="url(#path-4-outside-1_10_53)"/>
<line x1="81" y1="112.5" x2="146" y2="112.5" stroke="white" stroke-width="3"/>
<path d="M301.5 124L288 145L275 134.5L301.5 84.5L317 100.5L301.5 124Z" fill="#8C52FF"/>
<path d="M278.329 98.9139L261.462 128.099L281.788 139.423L325.344 77.3397L296.967 65.7389L278.329 98.9139Z" fill="#8C52FF"/>
<circle cx="182.5" cy="182.5" r="166" stroke="black" stroke-width="33"/>
<path d="M516.213 220H488.39L471.03 148.622H475.215L457.855 220H429.878L406.55 117.7H433.133L445.455 189.465H445.145L464.365 117.7H481.803L501.1 189.465H500.79L513.113 117.7H539.695L516.213 220ZM553.264 117.7H618.596V138.005H576.359V158.852H618.209V178.537H576.359V199.695H618.596V220H553.264V117.7ZM692.791 220H666.596L630.171 117.7H656.289L679.694 190.472L703.099 117.7H729.216L692.791 220ZM757.568 168.772C757.568 174.611 758.756 179.907 761.133 184.66C763.561 189.362 766.894 193.107 771.131 195.897C775.419 198.687 780.379 200.083 786.011 200.083C791.642 200.083 796.576 198.687 800.813 195.897C805.101 193.107 808.434 189.362 810.811 184.66C813.239 179.907 814.453 174.611 814.453 168.772C814.453 162.934 813.239 157.664 810.811 152.962C808.434 148.261 805.101 144.515 800.813 141.725C796.576 138.883 791.642 137.462 786.011 137.462C780.379 137.462 775.419 138.883 771.131 141.725C766.894 144.515 763.561 148.261 761.133 152.962C758.756 157.664 757.568 162.934 757.568 168.772ZM733.466 168.772C733.466 161.332 734.783 154.409 737.418 148.002C740.053 141.544 743.747 135.912 748.501 131.107C753.254 126.302 758.834 122.557 765.241 119.87C771.647 117.183 778.571 115.84 786.011 115.84C793.554 115.84 800.503 117.183 806.858 119.87C813.265 122.557 818.819 126.302 823.521 131.107C828.274 135.912 831.942 141.544 834.526 148.002C837.161 154.409 838.478 161.332 838.478 168.772C838.478 176.264 837.212 183.239 834.681 189.697C832.149 196.104 828.532 201.736 823.831 206.592C819.129 211.397 813.575 215.143 807.168 217.83C800.761 220.517 793.709 221.86 786.011 221.86C778.157 221.86 771.001 220.517 764.543 217.83C758.136 215.143 752.608 211.397 747.958 206.592C743.308 201.736 739.717 196.104 737.186 189.697C734.706 183.239 733.466 176.264 733.466 168.772ZM851.295 117.7H892.99C898.931 117.7 904.227 118.94 908.877 121.42C913.527 123.9 917.195 127.491 919.882 132.192C922.62 136.842 923.99 142.397 923.99 148.855C923.99 155.313 922.827 160.609 920.502 164.742C918.229 168.824 915.49 171.898 912.287 173.965C909.084 175.98 906.113 177.194 903.375 177.607L928.252 220H902.212L880.047 179.39H874.467V220H851.295V117.7ZM874.467 163.347H884.697C888.83 163.347 892.447 162.34 895.547 160.325C898.647 158.31 900.197 154.745 900.197 149.63C900.197 144.515 898.673 140.976 895.625 139.012C892.576 136.997 888.985 135.99 884.852 135.99H874.467V163.347ZM958.404 183.187L923.142 117.7H951.274L969.952 156.682L988.707 117.7H1016.68L981.577 183.187V220H958.404V183.187Z" fill="white"/>
</svg>
