<svg width="548" height="384" viewBox="0 0 548 384" fill="none" xmlns="http://www.w3.org/2000/svg">
<path d="M535.7 60.1C529.4 36.4 510.9 17.8 487.4 11.5C444.8 0 274 0 274 0C274 0 103.2 0 60.6 11.5C37.1 17.8 18.6 36.4 12.3 60.1C0.899994 103 0.899994 192.4 0.899994 192.4C0.899994 192.4 0.899994 281.8 12.3 324.7C18.6 348.4 37.1 366.2 60.6 372.5C103.2 384 274 384 274 384C274 384 444.8 384 487.4 372.5C510.9 366.2 529.4 348.3 535.7 324.7C547.1 281.8 547.1 192.4 547.1 192.4C547.1 192.4 547.1 103 535.7 60.1ZM218.2 273.6V111.2L360.9 192.4L218.2 273.6Z" fill="white"/>
</svg>
